# xmcd CD database file
#
# Track frame offsets:
#	150
#	14790
#	28803
#	41441
#	56666
#	70346
#	84071
#	99389
#	115006
#	127231
#	139931
#	154975
#	167222
#	181960
#	195116
#	207593
#	222188
#	235783
#	248490
#	260308
#	273208
#	285537
#	299375
#	312018
#	324498
#	336604
#
# Disc length: 4667 seconds
#
# Revision: 0
# Processed by: cddbd v1.5.2PL0 Copyright (c) Steve Scherf et al.
# Submitted via: CDex 2.18
#
DISCID=8112391a
DTITLE=Ruth Etting - Love Me or Leave Me Disc 2
DYEAR=2016
DGENRE=Jazz
TTITLE0=Ten Cents a Dance
TTITLE1=Funny, Dear, What Love Can Do
TTITLE2=Dancing with Tears in My Eyes
TTITLE3=Don't Tell Him What Happened to Me
TTITLE4=Just a Little Closer
TTITLE5=If I Could Be with You One Hour Tonight
TTITLE6=Body and Soul
TTITLE7=Love is Like That, What Can You Do?
TTITLE8=Nevertheless I'm in Love with You
TTITLE9=Shine on, Harvest Moon
TTITLE10=Guilty
TTITLE11=Me!
TTITLE12=A Faded Summer Love
TTITLE13=Cuban Love Song
TTITLE14=It Was So Beautiful
TTITLE15=I'll Never Be the Same
TTITLE16=Linger a Little Longer in the Twilight
TTITLE17=Close Your Eyes
TTITLE18=Smoke Gets in Your Eyes
TTITLE19=Riptide
TTITLE20=Easy Come, Easy Go
TTITLE21=Life is a Song, Let's Sing It Together
TTITLE22=You
TTITLE23=It's a Sin to Tell a Lie
TTITLE24=There's a Lull in My Life
TTITLE25=Goodnight, Sweetheart
EXTD=YEAR: 2016
EXTT0=
EXTT1=
EXTT2=
EXTT3=
EXTT4=
EXTT5=
EXTT6=
EXTT7=
EXTT8=
EXTT9=
EXTT10=
EXTT11=
EXTT12=
EXTT13=
EXTT14=
EXTT15=
EXTT16=
EXTT17=
EXTT18=
EXTT19=
EXTT20=
EXTT21=
EXTT22=
EXTT23=
EXTT24=
EXTT25=
PLAYORDER=
